<svg id="Livello_2" data-name="Livello 2" xmlns="http://www.w3.org/2000/svg" viewBox="0 0 112.73 135.13">
  <defs>
    <style>
      .cls-1 {
        fill: #9E9E9E;
        stroke-width: 0px;
      }
    </style>
  </defs>
  <g id="Livello_1-2" data-name="Livello 1">
    <g>
      <path class="cls-1" d="m111.52,69.75c-1.43-6.41-3.84-11.21-7.24-14.4-3.39-3.19-7.09-5.25-11.11-6.19-4.02-.94-9.13-1.64-15.35-2.09-.34.01-.7,0-1.08-.01-.38-.03-.74-.06-1.09-.12-.55-.02-1.08-.05-1.61-.1-.51-.06-1.02-.1-1.5-.13-3.34-.34-6.18-.89-8.52-1.63-2.34-.73-4.34-1.93-6-3.6-1.66-1.67-2.82-3.96-3.47-6.88-1.3-5.83-.81-10.53,1.45-14.09,2.27-3.56,6.35-6,12.24-7.31,5.89-1.31,10.64-.77,14.23,1.62,3.59,2.4,6.07,6.64,7.42,12.73l12.92-2.88c-1.5-6.74-3.88-12.09-7.14-16.05-3.26-3.96-7.39-6.56-12.39-7.8-5-1.22-10.9-1.09-17.7.43-6.8,1.51-12.23,3.86-16.28,7.04-4.05,3.17-6.72,7.19-7.98,12.02-.52,1.99-.76,4.16-.82,6.44-4.29-.73-9.19-.53-14.78.71-6.02,1.34-10.84,3.43-14.51,6.26l7.54,10.93c2.09-2.52,5.29-4.27,9.63-5.24,5.18-1.15,9.37-.68,12.56,1.44.6.4,1.25.75,1.9,1.09,1.43,4.28,3.39,7.64,5.88,10.06,3.3,3.21,6.92,5.27,10.86,6.2,3.94.92,8.91,1.53,14.89,1.83.13-.03.28-.04.44-.05.18,0,.33.02.47.05.21.02.43.02.67,0,.23-.02.45-.02.66,0,4.13.24,7.6.69,10.4,1.36,2.8.67,5.24,1.91,7.3,3.73,2.07,1.81,3.49,4.43,4.26,7.87.95,4.25.95,7.85.03,10.81l8.41,12.19c2.36-2.64,3.97-5.77,4.84-9.4,1.14-4.77.99-10.4-.45-16.87Z"/>
      <path class="cls-1" d="m93.96,90.47c-2.09,2.52-5.29,4.27-9.63,5.24-5.18,1.15-9.37.68-12.56-1.44-.67-.44-1.35-.91-2.02-1.4-1.42-4.13-3.34-7.39-5.76-9.75-3.3-3.21-6.92-5.27-10.86-6.2-3.94-.92-8.91-1.53-14.89-1.83-.13.03-.28.04-.44.05-.18,0-.33-.02-.47-.05-.21-.02-.43-.02-.67,0-.23.02-.45.02-.66,0-4.13-.24-7.6-.69-10.4-1.36-2.8-.67-5.24-1.91-7.3-3.73-2.07-1.81-3.49-4.43-4.25-7.87-.95-4.25-.95-7.85-.03-10.81l-8.41-12.19c-2.36,2.64-3.97,5.77-4.84,9.4-1.14,4.77-.99,10.4.45,16.87,1.43,6.41,3.84,11.21,7.24,14.4,3.39,3.19,7.09,5.25,11.11,6.19,4.02.94,9.13,1.64,15.35,2.09.34-.01.7,0,1.08.01.38.03.74.06,1.09.12.55.02,1.08.05,1.61.1.51.06,1.02.1,1.5.13,3.34.34,6.18.89,8.52,1.63,2.34.73,4.34,1.93,6,3.6,1.66,1.67,2.82,3.96,3.47,6.88,1.3,5.83.81,10.53-1.45,14.09-2.27,3.56-6.35,6-12.24,7.31-5.89,1.31-10.64.77-14.23-1.62-3.59-2.4-6.07-6.64-7.42-12.73l-12.92,2.88c1.5,6.74,3.88,12.09,7.14,16.05,3.26,3.96,7.39,6.56,12.39,7.8,5,1.22,10.9,1.09,17.7-.43,6.8-1.51,12.23-3.86,16.28-7.04,4.05-3.17,6.72-7.19,7.98-12.02.52-1.99.76-4.16.82-6.44,4.29.73,9.19.53,14.78-.71,6.02-1.34,10.84-3.43,14.5-6.26l-7.54-10.93Z"/>
    </g>
  </g>
</svg>
